# xmcd
#
# Track frame offsets: 
#        150
#        18407
#        32400
#        49690
#        67144
#        89574
#        108359
#        124605
#        137052
#        154322
#        170765
#        193616
#        216088
#        235650
#
# Disc length: 3386 seconds
#
# Revision: 0
# Processed by: cddbd v1.5.2PL0 Copyright (c) Steve Scherf et al.
# Submitted via: ExactAudioCopy v1.0b3
#
DISCID=c20d380e
DTITLE=eva klein - nothing to add
DYEAR=1900
DGENRE=
TTITLE0=this is home
TTITLE1=love is a demon
TTITLE2=the moment I'm thinking of you
TTITLE3=I was wrong
TTITLE4=the Baltic Sea
TTITLE5=all that matters
TTITLE6=you made it real
TTITLE7=look around you
TTITLE8=salt
TTITLE9=when I will find
TTITLE10=kiss again
TTITLE11=jailor
TTITLE12=twenty-nine
TTITLE13=no one
EXTD=
EXTT0=
EXTT1=
EXTT2=
EXTT3=
EXTT4=
EXTT5=
EXTT6=
EXTT7=
EXTT8=
EXTT9=
EXTT10=
EXTT11=
EXTT12=
EXTT13=
PLAYORDER=
